# xmcd
#
# Track frame offsets: 
#        150
#        21068
#        41712
#        55215
#        67673
#        92113
#        111068
#        143534
#        156380
#        171627
#        186458
#        201635
#        218496
#        235725
#        255522
#
# Disc length: 3674 seconds
#
# Revision: 0
# Processed by: cddbd v1.5.2PL0 Copyright (c) Steve Scherf et al.
# Submitted via: ExactAudioCopyFreeDBPlugin 1.0
#
DISCID=d50e580f
DTITLE=Shri - Dogs Of Devotion
DYEAR=2007
DGENRE=
TTITLE0=Tryin'
TTITLE1=Trouble
TTITLE2=Time To
TTITLE3=Small Change
TTITLE4=On Your Way Down
TTITLE5=News
TTITLE6=Motherless Child
TTITLE7=Magic
TTITLE8=Where My Heart Used To Be
TTITLE9=Got To Do
TTITLE10=For Me
TTITLE11=Fact
TTITLE12=Don't Work
TTITLE13=Dock Of The Bay
TTITLE14=Dark Angel
EXTD=
EXTT0=
EXTT1=
EXTT2=
EXTT3=
EXTT4=
EXTT5=
EXTT6=
EXTT7=
EXTT8=
EXTT9=
EXTT10=
EXTT11=
EXTT12=
EXTT13=
EXTT14=
PLAYORDER=
